<svg id="visual" viewBox="0 0 900 600" width="900" height="600" xmlns="http://www.w3.org/2000/svg" xmlns:xlink="http://www.w3.org/1999/xlink" version="1.1"><g stroke-width="1" stroke-linejoin="bevel"><path d="M501 286L591 288L576 201Z" fill="#0874b1" stroke="#0874b1"></path><path d="M576 201L471 172L501 286Z" fill="#005b97" stroke="#005b97"></path><path d="M591 288L664 237L576 201Z" fill="#1081bd" stroke="#1081bd"></path><path d="M471 172L410 233L501 286Z" fill="#178fca" stroke="#178fca"></path><path d="M516 68L430 118L471 172Z" fill="#1e9cd7" stroke="#1e9cd7"></path><path d="M471 172L430 118L410 233Z" fill="#0c7bb7" stroke="#0c7bb7"></path><path d="M516 68L471 172L576 201Z" fill="#066eaa" stroke="#066eaa"></path><path d="M476 420L600 425L501 286Z" fill="#0874b1" stroke="#0874b1"></path><path d="M501 286L600 425L591 288Z" fill="#178fca" stroke="#178fca"></path><path d="M591 288L738 295L664 237Z" fill="#1081bd" stroke="#1081bd"></path><path d="M408 416L476 420L501 286Z" fill="#01619d" stroke="#01619d"></path><path d="M590 70L516 68L576 201Z" fill="#005b97" stroke="#005b97"></path><path d="M717 137L590 70L576 201Z" fill="#1081bd" stroke="#1081bd"></path><path d="M303 299L364 298L263 196Z" fill="#1e9cd7" stroke="#1e9cd7"></path><path d="M410 233L364 298L501 286Z" fill="#1388c4" stroke="#1388c4"></path><path d="M600 425L738 295L591 288Z" fill="#0874b1" stroke="#0874b1"></path><path d="M664 237L717 137L576 201Z" fill="#1e9cd7" stroke="#1e9cd7"></path><path d="M738 295L717 137L664 237Z" fill="#005b97" stroke="#005b97"></path><path d="M364 298L408 416L501 286Z" fill="#005b97" stroke="#005b97"></path><path d="M713 435L766 316L738 295Z" fill="#0874b1" stroke="#0874b1"></path><path d="M738 295L838 169L717 137Z" fill="#0368a4" stroke="#0368a4"></path><path d="M600 425L713 435L738 295Z" fill="#1a95d1" stroke="#1a95d1"></path><path d="M591 524L713 435L600 425Z" fill="#066eaa" stroke="#066eaa"></path><path d="M591 524L600 425L476 420Z" fill="#0c7bb7" stroke="#0c7bb7"></path><path d="M263 196L364 298L410 233Z" fill="#1388c4" stroke="#1388c4"></path><path d="M364 298L287 371L408 416Z" fill="#1a95d1" stroke="#1a95d1"></path><path d="M603 0L529 0L590 70Z" fill="#0874b1" stroke="#0874b1"></path><path d="M590 70L529 0L516 68Z" fill="#1081bd" stroke="#1081bd"></path><path d="M516 68L375 0L430 118Z" fill="#0874b1" stroke="#0874b1"></path><path d="M685 0L603 0L590 70Z" fill="#1388c4" stroke="#1388c4"></path><path d="M460 518L591 524L476 420Z" fill="#0368a4" stroke="#0368a4"></path><path d="M735 464L767 423L713 435Z" fill="#0c7bb7" stroke="#0c7bb7"></path><path d="M713 435L767 423L766 316Z" fill="#1081bd" stroke="#1081bd"></path><path d="M838 169L762 72L717 137Z" fill="#1a95d1" stroke="#1a95d1"></path><path d="M717 137L685 0L590 70Z" fill="#01619d" stroke="#01619d"></path><path d="M393 517L460 518L408 416Z" fill="#1388c4" stroke="#1388c4"></path><path d="M408 416L460 518L476 420Z" fill="#0874b1" stroke="#0874b1"></path><path d="M591 524L735 464L713 435Z" fill="#1a95d1" stroke="#1a95d1"></path><path d="M303 299L287 371L364 298Z" fill="#1e9cd7" stroke="#1e9cd7"></path><path d="M762 72L685 0L717 137Z" fill="#0874b1" stroke="#0874b1"></path><path d="M302 87L410 233L430 118Z" fill="#0874b1" stroke="#0874b1"></path><path d="M302 87L263 196L410 233Z" fill="#0368a4" stroke="#0368a4"></path><path d="M303 299L239 360L287 371Z" fill="#1e9cd7" stroke="#1e9cd7"></path><path d="M375 0L302 87L430 118Z" fill="#1a95d1" stroke="#1a95d1"></path><path d="M900 193L838 169L900 323Z" fill="#005b97" stroke="#005b97"></path><path d="M766 316L838 169L738 295Z" fill="#005b97" stroke="#005b97"></path><path d="M529 0L375 0L516 68Z" fill="#0874b1" stroke="#0874b1"></path><path d="M330 470L393 517L408 416Z" fill="#0874b1" stroke="#0874b1"></path><path d="M490 600L600 600L591 524Z" fill="#005b97" stroke="#005b97"></path><path d="M287 371L330 470L408 416Z" fill="#0874b1" stroke="#0874b1"></path><path d="M263 196L233 274L303 299Z" fill="#1a95d1" stroke="#1a95d1"></path><path d="M287 371L189 475L330 470Z" fill="#005b97" stroke="#005b97"></path><path d="M164 228L233 274L263 196Z" fill="#1a95d1" stroke="#1a95d1"></path><path d="M375 0L338 0L302 87Z" fill="#1081bd" stroke="#1081bd"></path><path d="M233 274L239 360L303 299Z" fill="#178fca" stroke="#178fca"></path><path d="M900 0L767 0L762 72Z" fill="#005b97" stroke="#005b97"></path><path d="M762 72L767 0L685 0Z" fill="#005b97" stroke="#005b97"></path><path d="M490 600L591 524L460 518Z" fill="#1a95d1" stroke="#1a95d1"></path><path d="M591 524L705 600L735 464Z" fill="#0c7bb7" stroke="#0c7bb7"></path><path d="M376 600L460 518L393 517Z" fill="#1081bd" stroke="#1081bd"></path><path d="M376 600L490 600L460 518Z" fill="#066eaa" stroke="#066eaa"></path><path d="M900 323L838 169L766 316Z" fill="#0874b1" stroke="#0874b1"></path><path d="M838 169L900 109L762 72Z" fill="#0c7bb7" stroke="#0c7bb7"></path><path d="M735 464L802 502L767 423Z" fill="#178fca" stroke="#178fca"></path><path d="M900 375L900 323L766 316Z" fill="#0368a4" stroke="#0368a4"></path><path d="M705 600L802 502L735 464Z" fill="#0368a4" stroke="#0368a4"></path><path d="M900 375L766 316L767 423Z" fill="#0368a4" stroke="#0368a4"></path><path d="M900 493L900 375L767 423Z" fill="#1388c4" stroke="#1388c4"></path><path d="M900 193L900 109L838 169Z" fill="#1a95d1" stroke="#1a95d1"></path><path d="M600 600L705 600L591 524Z" fill="#0c7bb7" stroke="#0c7bb7"></path><path d="M179 118L263 196L302 87Z" fill="#01619d" stroke="#01619d"></path><path d="M179 118L164 228L263 196Z" fill="#0368a4" stroke="#0368a4"></path><path d="M233 274L135 294L239 360Z" fill="#1a95d1" stroke="#1a95d1"></path><path d="M339 600L393 517L330 470Z" fill="#0368a4" stroke="#0368a4"></path><path d="M339 600L376 600L393 517Z" fill="#1388c4" stroke="#1388c4"></path><path d="M190 0L179 118L302 87Z" fill="#1081bd" stroke="#1081bd"></path><path d="M218 600L339 600L330 470Z" fill="#066eaa" stroke="#066eaa"></path><path d="M189 475L287 371L239 360Z" fill="#1081bd" stroke="#1081bd"></path><path d="M60 228L135 294L164 228Z" fill="#0368a4" stroke="#0368a4"></path><path d="M164 228L135 294L233 274Z" fill="#01619d" stroke="#01619d"></path><path d="M132 417L189 475L239 360Z" fill="#0c7bb7" stroke="#0c7bb7"></path><path d="M705 600L790 600L802 502Z" fill="#0368a4" stroke="#0368a4"></path><path d="M802 502L900 493L767 423Z" fill="#178fca" stroke="#178fca"></path><path d="M900 600L900 493L802 502Z" fill="#1388c4" stroke="#1388c4"></path><path d="M900 109L900 0L762 72Z" fill="#005b97" stroke="#005b97"></path><path d="M338 0L190 0L302 87Z" fill="#1081bd" stroke="#1081bd"></path><path d="M179 118L98 116L164 228Z" fill="#1a95d1" stroke="#1a95d1"></path><path d="M135 294L132 417L239 360Z" fill="#178fca" stroke="#178fca"></path><path d="M110 0L98 116L179 118Z" fill="#066eaa" stroke="#066eaa"></path><path d="M135 294L0 363L132 417Z" fill="#0368a4" stroke="#0368a4"></path><path d="M0 363L127 470L132 417Z" fill="#1e9cd7" stroke="#1e9cd7"></path><path d="M132 417L127 470L189 475Z" fill="#005b97" stroke="#005b97"></path><path d="M189 475L218 600L330 470Z" fill="#0368a4" stroke="#0368a4"></path><path d="M95 600L218 600L189 475Z" fill="#0874b1" stroke="#0874b1"></path><path d="M98 116L60 228L164 228Z" fill="#066eaa" stroke="#066eaa"></path><path d="M790 600L900 600L802 502Z" fill="#1e9cd7" stroke="#1e9cd7"></path><path d="M190 0L110 0L179 118Z" fill="#1e9cd7" stroke="#1e9cd7"></path><path d="M98 116L0 203L60 228Z" fill="#1081bd" stroke="#1081bd"></path><path d="M0 78L0 203L98 116Z" fill="#178fca" stroke="#178fca"></path><path d="M60 228L0 322L135 294Z" fill="#005b97" stroke="#005b97"></path><path d="M0 203L0 322L60 228Z" fill="#01619d" stroke="#01619d"></path><path d="M127 470L95 600L189 475Z" fill="#1a95d1" stroke="#1a95d1"></path><path d="M0 322L0 363L135 294Z" fill="#0874b1" stroke="#0874b1"></path><path d="M0 535L95 600L127 470Z" fill="#0c7bb7" stroke="#0c7bb7"></path><path d="M110 0L0 78L98 116Z" fill="#0368a4" stroke="#0368a4"></path><path d="M110 0L0 0L0 78Z" fill="#0368a4" stroke="#0368a4"></path><path d="M0 363L0 535L127 470Z" fill="#178fca" stroke="#178fca"></path><path d="M0 535L0 600L95 600Z" fill="#01619d" stroke="#01619d"></path></g></svg>