<svg xmlns="http://www.w3.org/2000/svg" viewBox="0 0 700 500">
    <g id="freepik--background-simple--inject-193">
        <path
            d="M601.81,346.69s27.37-140.34-47.19-220c-65.82-70.29-170-97.63-255-39.5-30.27,20.71-52.3,60.91-87.66,73.34-39.64,13.93-90.61,18.91-127.42,78.63S61,375.55,110,416.36s135,1,212.38-2S561.22,519.87,601.81,346.69Z"
            style="fill:#1E9CD7"></path>
        <path
            d="M601.81,346.69s27.37-140.34-47.19-220c-65.82-70.29-170-97.63-255-39.5-30.27,20.71-52.3,60.91-87.66,73.34-39.64,13.93-90.61,18.91-127.42,78.63S61,375.55,110,416.36s135,1,212.38-2S561.22,519.87,601.81,346.69Z"
            style="fill:#fff;opacity:0.7000000000000001"></path>
    </g>
    <g id="freepik--Graphics--inject-193">
        <rect x="413.03" y="79.59" width="16.81" height="16.81"
            transform="translate(61.21 323.77) rotate(-45)"
            style="fill:none;stroke:#263238;stroke-linecap:round;stroke-linejoin:round;stroke-width:1.20076px"></rect>
        <rect x="295.09" y="44.38" width="9.17" height="9.17"
            transform="translate(53.15 226.24) rotate(-45)"
            style="fill:none;stroke:#263238;stroke-linecap:round;stroke-linejoin:round;stroke-width:1.20076px"></rect>
        <rect x="566.07" y="103.84" width="9.17" height="9.17"
            transform="translate(90.47 435.27) rotate(-45)"
            style="fill:none;stroke:#263238;stroke-linecap:round;stroke-linejoin:round;stroke-width:1.20076px"></rect>
        <path d="M229.31,122.82a4.81,4.81,0,1,0-4.8,4.8A4.8,4.8,0,0,0,229.31,122.82Z"
            style="fill:none;stroke:#263238;stroke-linecap:round;stroke-linejoin:round;stroke-width:1.20076px"></path>
        <path d="M602.75,383.38a4.81,4.81,0,1,0-4.81,4.8A4.8,4.8,0,0,0,602.75,383.38Z"
            style="fill:none;stroke:#263238;stroke-linecap:round;stroke-linejoin:round;stroke-width:1.20076px"></path>
        <path d="M486.27,140.83a4.8,4.8,0,1,0-4.8,4.8A4.8,4.8,0,0,0,486.27,140.83Z"
            style="fill:none;stroke:#263238;stroke-linecap:round;stroke-linejoin:round;stroke-width:1.20076px"></path>
        <path d="M110.44,176.85a4.81,4.81,0,1,0-4.81,4.8A4.81,4.81,0,0,0,110.44,176.85Z"
            style="fill:none;stroke:#263238;stroke-linecap:round;stroke-linejoin:round;stroke-width:1.20076px"></path>
    </g>
    <g id="freepik--Device--inject-193">
        <path
            d="M147.34,161H574.61a12.74,12.74,0,0,1,12.74,12.74V454.91a0,0,0,0,1,0,0H134.61a0,0,0,0,1,0,0V173.78A12.74,12.74,0,0,1,147.34,161Z"
            style="fill:#fff;stroke:#263238;stroke-linecap:round;stroke-linejoin:round;stroke-width:1.20076px"></path>
        <rect x="206.44" y="440.76" width="311.15" height="15.33"
            style="fill:#263238;stroke:#263238;stroke-linecap:round;stroke-linejoin:round;stroke-width:1.20076px"></rect>
        <rect x="206.44" y="448.15" width="311.15" height="7.95"
            style="fill:#fff;stroke:#263238;stroke-linecap:round;stroke-linejoin:round;stroke-width:1.20076px"></rect>
        <path d="M98,465.18s5.11,6.25,20.44,11.36H605.59s11.36-2.84,16.47-10.79Z"
            style="fill:#263238;stroke:#263238;stroke-linecap:round;stroke-linejoin:round;stroke-width:1.20076px"></path>
        <rect x="96.95" y="453.99" width="526.21" height="11.94" rx="3.86"
            style="fill:#fff;stroke:#263238;stroke-linecap:round;stroke-linejoin:round;stroke-width:1.20076px"></rect>
        <path d="M364.85,169.93a4,4,0,1,0-4,4A4,4,0,0,0,364.85,169.93Z" style="fill:#263238"></path>
        <path
            d="M138.87,243.74h0a1.13,1.13,0,0,1-1.13-1.13V209.68a1.14,1.14,0,0,1,1.13-1.14h0a1.14,1.14,0,0,1,1.14,1.14v32.93A1.13,1.13,0,0,1,138.87,243.74Z"
            style="fill:#263238;stroke:#fff;stroke-linejoin:round;stroke-width:0.830552px"></path>
        <rect x="152.97" y="184" width="416" height="235.09"
            style="fill:#d1d1d1;stroke:#263238;stroke-linejoin:round;stroke-width:1.20076px"></rect>
        <rect x="222.11" y="184" width="346.87" height="13.9" style="fill:#263238"></rect>
        <circle cx="169.38" cy="238.34" r="9.94" transform="translate(-78.31 82.96) rotate(-22.5)"
            style="fill:none;stroke:#263238;stroke-linejoin:round;stroke-width:1.20076px"></circle>
        <circle cx="169.38" cy="266.88" r="9.94"
            style="fill:none;stroke:#263238;stroke-linejoin:round;stroke-width:1.20076px"></circle>
        <circle cx="169.38" cy="295.42" r="9.94" transform="translate(-100.16 87.31) rotate(-22.5)"
            style="fill:none;stroke:#263238;stroke-linejoin:round;stroke-width:1.20076px"></circle>
        <circle cx="169.38" cy="323.97" r="9.94"
            style="fill:none;stroke:#263238;stroke-linejoin:round;stroke-width:1.20076px"></circle>
        <circle cx="169.38" cy="352.51" r="9.94"
            style="fill:none;stroke:#263238;stroke-linejoin:round;stroke-width:1.20076px"></circle>
        <circle cx="169.38" cy="381.06" r="9.94"
            transform="translate(-233.89 487.21) rotate(-80.78)"
            style="fill:none;stroke:#263238;stroke-linejoin:round;stroke-width:1.20076px"></circle>
        <rect x="201.77" y="205.94" width="341.88" height="207.18"
            style="fill:none;stroke:#263238;stroke-linejoin:round;stroke-width:1.20076px"></rect>
        <line x1="202.31" y1="329.73" x2="544.06" y2="329.73"
            style="fill:none;stroke:#263238;stroke-linejoin:round;stroke-width:1.20076px"></line>
        <line x1="399.39" y1="342.28" x2="516.01" y2="342.28"
            style="fill:none;stroke:#263238;stroke-linejoin:round;stroke-width:1.20076px"></line>
        <line x1="399.39" y1="352.61" x2="516.01" y2="352.61"
            style="fill:none;stroke:#263238;stroke-linejoin:round;stroke-width:1.20076px"></line>
        <line x1="399.39" y1="362.95" x2="516.01" y2="362.95"
            style="fill:none;stroke:#263238;stroke-linejoin:round;stroke-width:1.20076px"></line>
        <line x1="399.39" y1="373.28" x2="516.01" y2="373.28"
            style="fill:none;stroke:#263238;stroke-linejoin:round;stroke-width:1.20076px"></line>
        <line x1="399.39" y1="383.61" x2="516.01" y2="383.61"
            style="fill:none;stroke:#263238;stroke-linejoin:round;stroke-width:1.20076px"></line>
        <line x1="399.39" y1="393.95" x2="516.01" y2="393.95"
            style="fill:none;stroke:#263238;stroke-linejoin:round;stroke-width:1.20076px"></line>
        <line x1="367.3" y1="211.08" x2="367.3" y2="212.28"
            style="fill:none;stroke:#263238;stroke-linejoin:round;stroke-width:1.20076px"></line>
        <line x1="367.3" y1="214.65" x2="367.3" y2="322.75"
            style="fill:none;stroke:#263238;stroke-linejoin:round;stroke-width:1.20076px;stroke-dasharray:2.3758199214935303,2.3758199214935303"></line>
        <line x1="367.3" y1="323.94" x2="367.3" y2="325.14"
            style="fill:none;stroke:#263238;stroke-linejoin:round;stroke-width:1.20076px"></line>
        <path d="M372.43,328.46a5.13,5.13,0,1,0-5.13,5.13A5.12,5.12,0,0,0,372.43,328.46Z"
            style="fill:#fff;stroke:#263238;stroke-linejoin:round;stroke-width:1.20076px"></path>
        <line x1="367.23" y1="325.14" x2="367.23" y2="332.02"
            style="fill:none;stroke:#263238;stroke-linejoin:round;stroke-width:0.60038px"></line>
        <line x1="370.67" y1="328.58" x2="363.79" y2="328.58"
            style="fill:none;stroke:#263238;stroke-linejoin:round;stroke-width:0.60038px"></line>
        <path
            d="M322.68,272.65H241.86a6.08,6.08,0,0,1-6.09-6.09h0a6.08,6.08,0,0,1,6.09-6.09h80.82a6.09,6.09,0,0,1,6.09,6.09h0A6.09,6.09,0,0,1,322.68,272.65Z"
            style="fill:none;stroke:#263238;stroke-linejoin:round;stroke-width:1.20076px"></path>
        <rect x="208.88" y="340.8" width="80.85" height="57.75"
            style="fill:#1E9CD7;stroke:#263238;stroke-linejoin:round;stroke-width:1.20076px"></rect>
        <line x1="208.88" y1="398.55" x2="289.73" y2="340.8"
            style="fill:none;stroke:#263238;stroke-linejoin:round;stroke-width:1.20076px"></line>
        <line x1="208.88" y1="340.8" x2="289.73" y2="398.55"
            style="fill:none;stroke:#263238;stroke-linejoin:round;stroke-width:1.20076px"></line>
        <rect x="301.14" y="340.8" width="80.85" height="57.75"
            style="fill:#1E9CD7;stroke:#263238;stroke-linejoin:round;stroke-width:1.20076px"></rect>
        <line x1="301.14" y1="398.55" x2="382" y2="340.8"
            style="fill:none;stroke:#263238;stroke-linejoin:round;stroke-width:1.20076px"></line>
        <line x1="301.14" y1="340.8" x2="382" y2="398.55"
            style="fill:none;stroke:#263238;stroke-linejoin:round;stroke-width:1.20076px"></line>
        <line x1="179.32" y1="295.42" x2="201.18" y2="295.42"
            style="fill:none;stroke:#263238;stroke-linejoin:round;stroke-width:1.20076px"></line>
    </g>
</svg>